<?xml version="1.0" encoding="UTF-8"?>
<svg xmlns="http://www.w3.org/2000/svg" width="60" height="60" viewBox="0 0 60 60" fill="none">
<g clip-path="url(#clip0)">
<g filter="url(#filter0_d)">
<path fill-rule="evenodd" clip-rule="evenodd" d="M60 18.769C60 18.052 60 17.336 59.996 16.619C59.992 16.016 59.985 15.412 59.969 14.809C59.934 13.494 59.856 12.168 59.623 10.868C59.386 9.548 58.999 8.32 58.388 7.121C57.788 5.942 57.005 4.865 56.07 3.93C55.135 2.996 54.058 2.212 52.879 1.612C51.681 1.002 50.453 0.615 49.134 0.378C47.833 0.144 46.507 0.067 45.192 0.031C44.588 0.015 43.985 0.008 43.381 0.004C42.665 0 41.948 0 41.231 0H18.769C18.053 0 17.336 0 16.62 0.004C16.016 0.008 15.412 0.015 14.809 0.031C13.494 0.067 12.167 0.144 10.867 0.378C9.548 0.615 8.32 1.002 7.122 1.612C5.943 2.212 4.865 2.996 3.931 3.93C2.996 4.865 2.213 5.942 1.613 7.121C1.002 8.32 0.615 9.548 0.378 10.868C0.145 12.168 0.067 13.494 0.032 14.809C0.016 15.412 0.008 16.016 0.005 16.619C0 17.336 0 18.052 0 18.769V41.231C0 41.948 0 42.664 0.005 43.381C0.008 43.984 0.016 44.588 0.032 45.191C0.067 46.506 0.145 47.832 0.378 49.132C0.615 50.452 1.002 51.681 1.613 52.88C2.213 54.058 2.996 55.135 3.931 56.069C4.865 57.005 5.943 57.788 7.122 58.388C8.32 58.998 9.548 59.385 10.867 59.622C12.167 59.855 13.494 59.934 14.809 59.969C15.412 59.985 16.016 59.992 16.62 59.996C17.336 60 18.053 60 18.769 60H41.231C41.948 60 42.665 60 43.381 59.996C43.985 59.992 44.588 59.985 45.192 59.969C46.507 59.934 47.833 59.855 49.134 59.622C50.453 59.385 51.681 58.998 52.879 58.388C54.058 57.788 55.135 57.005 56.07 56.069C57.005 55.135 57.788 54.058 58.388 52.88C58.999 51.681 59.386 50.452 59.623 49.132C59.856 47.832 59.934 46.506 59.969 45.191C59.985 44.588 59.992 43.984 59.996 43.381C60 42.664 60 41.948 60 41.231V18.769Z" fill="white"/>
</g>
<mask id="mask0" mask-type="alpha" maskUnits="userSpaceOnUse" x="0" y="0" width="60" height="60">
<path d="M0 4.8C0 2.14903 2.14903 0 4.8 0H55.2C57.851 0 60 2.14903 60 4.8V55.2C60 57.851 57.851 60 55.2 60H4.8C2.14903 60 0 57.851 0 55.2V4.8Z" fill="white"/>
</mask>
<g mask="url(#mask0)">
<rect x="-3" y="-1.35001" width="66" height="62.7" fill="black"/>
<path d="M11.6636 36.4009C14.0388 36.4009 15.8753 34.5689 15.8753 31.8579V21.3067H18.4461V38.4036H15.8998V36.816C14.749 38.0126 13.1575 38.6965 11.3696 38.6965C7.69621 38.6965 4.88 36.0343 4.88 32.0061V21.3095H7.45078V31.8579C7.45078 34.6177 9.26277 36.4009 11.6628 36.4009" fill="white"/>
<path d="M20.3559 21.3067H22.8291V27.5347C23.4059 26.9455 24.0953 26.4776 24.8566 26.1587C25.6179 25.8398 26.4356 25.6765 27.2612 25.6783C30.9346 25.6783 33.824 28.5848 33.824 32.1996C33.824 35.79 30.9346 38.6961 27.2612 38.6961C26.4316 38.6983 25.6098 38.5353 24.8442 38.2166C24.0786 37.8979 23.3844 37.4298 22.8026 36.84V38.4024H20.3523L20.3559 21.3067ZM27.0901 36.5227C29.4412 36.5227 31.3757 34.5929 31.3757 32.1996C31.3757 29.7814 29.4412 27.8765 27.0901 27.8765C24.7146 27.8765 22.7801 29.7814 22.7801 32.1996C22.7801 34.5929 24.6901 36.5227 27.0901 36.5227Z" fill="white"/>
<path d="M41.2207 25.7032C44.8202 25.7032 47.4653 28.4631 47.4653 32.1757V32.9817H37.3039C37.647 35.0089 39.3364 36.5232 41.4413 36.5232C42.8873 36.5232 44.1108 35.9367 45.0411 34.6912L46.829 36.01C45.5798 37.671 43.7188 38.6722 41.4413 38.6722C37.6948 38.6722 34.8051 35.8878 34.8051 32.1757C34.8051 28.6586 37.5722 25.7032 41.2211 25.7032H41.2207ZM37.3517 31.0279H44.9676C44.5515 29.1225 43.0086 27.8525 41.1721 27.8525C39.3356 27.8525 37.7928 29.1225 37.3517 31.0279Z" fill="white"/>
<path d="M54.1 28.1462C52.4836 28.1462 51.3083 29.3918 51.3083 31.3212V38.4042H48.8347V25.948H51.285V27.488C51.8971 26.4865 52.9014 25.8515 54.2727 25.8515H55.1295V28.1474L54.1 28.1462Z" fill="white"/>
</g>
</g>
<defs>
<filter id="filter0_d" x="-16" y="-16" width="92" height="92" filterUnits="userSpaceOnUse" color-interpolation-filters="sRGB">
<feFlood flood-opacity="0" result="BackgroundImageFix"/>
<feColorMatrix in="SourceAlpha" type="matrix" values="0 0 0 0 0 0 0 0 0 0 0 0 0 0 0 0 0 0 127 0"/>
<feOffset/>
<feGaussianBlur stdDeviation="8"/>
<feColorMatrix type="matrix" values="0 0 0 0 0 0 0 0 0 0 0 0 0 0 0 0 0 0 0.1 0"/>
<feBlend mode="normal" in2="BackgroundImageFix" result="effect1_dropShadow"/>
<feBlend mode="normal" in="SourceGraphic" in2="effect1_dropShadow" result="shape"/>
</filter>
<clipPath id="clip0">
<rect width="60" height="60" fill="white"/>
</clipPath>
</defs>
</svg>
